REM MD5 bfc5c2bd47ac8a1243b28cae5d2d1452
FILE "Pachio-kun - Pachinko Land Daibouken (Japan).bin" BINARY
  TRACK 01 MODE2/2352
    INDEX 01 00:00:00
  TRACK 02 AUDIO
    INDEX 00 11:10:58
    INDEX 01 11:12:58
  TRACK 03 AUDIO
    INDEX 00 11:57:59
    INDEX 01 11:59:59
  TRACK 04 AUDIO
    INDEX 00 12:51:17
    INDEX 01 12:53:17
  TRACK 05 AUDIO
    INDEX 00 13:29:51
    INDEX 01 13:31:51
  TRACK 06 AUDIO
    INDEX 00 14:35:40
    INDEX 01 14:37:40
  TRACK 07 AUDIO
    INDEX 00 16:50:43
    INDEX 01 16:52:43
  TRACK 08 AUDIO
    INDEX 00 20:13:01
    INDEX 01 20:15:01
  TRACK 09 AUDIO
    INDEX 00 21:02:18
    INDEX 01 21:04:18
  TRACK 10 AUDIO
    INDEX 00 22:03:70
    INDEX 01 22:05:70
  TRACK 11 AUDIO
    INDEX 00 22:43:59
    INDEX 01 22:45:59
  TRACK 12 AUDIO
    INDEX 00 23:40:52
    INDEX 01 23:42:52
  TRACK 13 AUDIO
    INDEX 00 24:48:05
    INDEX 01 24:50:05
  TRACK 14 AUDIO
    INDEX 00 25:19:72
    INDEX 01 25:21:72
  TRACK 15 AUDIO
    INDEX 00 25:40:28
    INDEX 01 25:42:28
  TRACK 16 AUDIO
    INDEX 00 26:30:58
    INDEX 01 26:32:58
  TRACK 17 AUDIO
    INDEX 00 27:18:05
    INDEX 01 27:20:05
  TRACK 18 AUDIO
    INDEX 00 28:08:61
    INDEX 01 28:10:61
  TRACK 19 AUDIO
    INDEX 00 29:01:20
    INDEX 01 29:03:20
  TRACK 20 AUDIO
    INDEX 00 29:45:54
    INDEX 01 29:47:54
  TRACK 21 AUDIO
    INDEX 00 30:28:65
    INDEX 01 30:30:65
  TRACK 22 AUDIO
    INDEX 00 31:07:39
    INDEX 01 31:09:39
  TRACK 23 AUDIO
    INDEX 00 31:59:20
    INDEX 01 32:01:20
  TRACK 24 AUDIO
    INDEX 00 32:52:41
    INDEX 01 32:54:41
  TRACK 25 AUDIO
    INDEX 00 33:37:33
    INDEX 01 33:39:33
  TRACK 26 AUDIO
    INDEX 00 34:26:35
    INDEX 01 34:28:35
  TRACK 27 AUDIO
    INDEX 00 35:12:52
    INDEX 01 35:14:52
  TRACK 28 AUDIO
    INDEX 00 36:01:46
    INDEX 01 36:03:46
  TRACK 29 AUDIO
    INDEX 00 36:49:72
    INDEX 01 36:51:72
  TRACK 30 AUDIO
    INDEX 00 37:09:05
    INDEX 01 37:11:05
  TRACK 31 AUDIO
    INDEX 00 39:53:41
    INDEX 01 39:55:41
  TRACK 32 AUDIO
    INDEX 00 40:13:72
    INDEX 01 40:15:72
  TRACK 33 AUDIO
    INDEX 00 41:20:58
    INDEX 01 41:22:58
  TRACK 34 AUDIO
    INDEX 00 42:27:44
    INDEX 01 42:29:44
  TRACK 35 AUDIO
    INDEX 00 43:34:30
    INDEX 01 43:36:30
  TRACK 36 AUDIO
    INDEX 00 44:41:16
    INDEX 01 44:43:16
  TRACK 37 AUDIO
    INDEX 00 45:48:02
    INDEX 01 45:50:02
  TRACK 38 AUDIO
    INDEX 00 46:54:63
    INDEX 01 46:56:63
  TRACK 39 AUDIO
    INDEX 00 48:01:49
    INDEX 01 48:03:49
  TRACK 40 AUDIO
    INDEX 00 49:08:35
    INDEX 01 49:10:35
  TRACK 41 AUDIO
    INDEX 00 49:16:05
    INDEX 01 49:18:05
  TRACK 42 AUDIO
    INDEX 00 49:25:06
    INDEX 01 49:27:06
  TRACK 43 AUDIO
    INDEX 00 49:32:45
    INDEX 01 49:34:45
  TRACK 44 AUDIO
    INDEX 00 49:40:60
    INDEX 01 49:42:60
  TRACK 45 AUDIO
    INDEX 00 49:48:04
    INDEX 01 49:50:04
  TRACK 46 AUDIO
    INDEX 00 49:55:65
    INDEX 01 49:57:65
  TRACK 47 AUDIO
    INDEX 00 50:03:31
    INDEX 01 50:05:31
  TRACK 48 AUDIO
    INDEX 00 50:10:44
    INDEX 01 50:12:44
  TRACK 49 AUDIO
    INDEX 00 50:18:15
    INDEX 01 50:20:15
  TRACK 50 AUDIO
    INDEX 00 50:26:09
    INDEX 01 50:28:09
  TRACK 51 AUDIO
    INDEX 00 50:34:02
    INDEX 01 50:36:02
  TRACK 52 AUDIO
    INDEX 00 50:40:65
    INDEX 01 50:42:65
  TRACK 53 AUDIO
    INDEX 00 50:48:17
    INDEX 01 50:50:17
  TRACK 54 AUDIO
    INDEX 00 50:54:32
    INDEX 01 50:56:32
  TRACK 55 AUDIO
    INDEX 00 51:02:52
    INDEX 01 51:04:52
  TRACK 56 AUDIO
    INDEX 00 51:09:03
    INDEX 01 51:11:03
  TRACK 57 AUDIO
    INDEX 00 51:17:23
    INDEX 01 51:19:23
  TRACK 58 AUDIO
    INDEX 00 51:23:46
    INDEX 01 51:25:46
  TRACK 59 AUDIO
    INDEX 00 54:34:46
    INDEX 01 54:36:46
  TRACK 60 AUDIO
    INDEX 00 57:03:46
    INDEX 01 57:05:46
REM LEADOUT 60:05:47
